<svg width="1200" height="315" viewBox="0 0 1200 315" xmlns="http://www.w3.org/2000/svg">
<rect width="1200" height="315" rx="12" fill="#070B0F"/>
<g font-family="Arial, Helvetica, sans-serif">
<text x="28" y="32" fill="#6D8790" font-family="monospace" font-size="11">SELECTED SYSTEMS / 004</text>

<g transform="translate(20,55)">
<rect width="275" height="225" rx="10" fill="#0B1117" stroke="#26333A"/>
<text x="20" y="34" fill="#22D3EE" font-family="monospace" font-size="12">01</text>
<text x="20" y="72" fill="#F2F6F7" font-size="25" font-weight="700">SMARTCHENNAI</text>
<text x="20" y="100" fill="#91A2A9" font-size="13">Urban intelligence /</text>
<text x="20" y="119" fill="#91A2A9" font-size="13">real-time operations</text>
<text x="20" y="158" fill="#5DD9E9" font-family="monospace" font-size="11">NEXT.JS · POSTGRES · REDIS</text>
<text x="20" y="198" fill="#D7E2E6" font-family="monospace" font-size="11">VIEW REPOSITORY  ↗</text>
</g>

<g transform="translate(310,55)">
<rect width="275" height="225" rx="10" fill="#0B1117" stroke="#26333A"/>
<text x="20" y="34" fill="#22D3EE" font-family="monospace" font-size="12">02</text>
<text x="20" y="72" fill="#F2F6F7" font-size="25" font-weight="700">POCKETMATE</text>
<text x="20" y="100" fill="#91A2A9" font-size="13">Application /</text>
<text x="20" y="119" fill="#91A2A9" font-size="13">product build</text>
<text x="20" y="158" fill="#5DD9E9" font-family="monospace" font-size="11">TYPESCRIPT</text>
<text x="20" y="198" fill="#D7E2E6" font-family="monospace" font-size="11">VIEW REPOSITORY  ↗</text>
</g>

<g transform="translate(600,55)">
<rect width="275" height="225" rx="10" fill="#0B1117" stroke="#26333A"/>
<text x="20" y="34" fill="#22D3EE" font-family="monospace" font-size="12">03</text>
<text x="20" y="72" fill="#F2F6F7" font-size="25" font-weight="700">GROCERY APP</text>
<text x="20" y="100" fill="#91A2A9" font-size="13">Application /</text>
<text x="20" y="119" fill="#91A2A9" font-size="13">DSA project</text>
<text x="20" y="158" fill="#5DD9E9" font-family="monospace" font-size="11">DART</text>
<text x="20" y="198" fill="#D7E2E6" font-family="monospace" font-size="11">VIEW REPOSITORY  ↗</text>
</g>

<g transform="translate(890,55)">
<rect width="275" height="225" rx="10" fill="#0B1117" stroke="#26333A"/>
<text x="20" y="34" fill="#22D3EE" font-family="monospace" font-size="12">04</text>
<text x="20" y="72" fill="#F2F6F7" font-size="25" font-weight="700">PROJECT SIH</text>
<text x="20" y="100" fill="#91A2A9" font-size="13">Hackathon /</text>
<text x="20" y="119" fill="#91A2A9" font-size="13">systems</text>
<text x="20" y="158" fill="#5DD9E9" font-family="monospace" font-size="11">PROJECT / PROTOTYPE</text>
<text x="20" y="198" fill="#D7E2E6" font-family="monospace" font-size="11">VIEW REPOSITORY  ↗</text>
</g>
</g></svg>